<mxfile host="app.diagrams.net" modified="2023-05-24T22:14:12.443Z" agent="Mozilla/5.0 (Windows NT 10.0; Win64; x64) AppleWebKit/537.36 (KHTML, like Gecko) Chrome/113.0.0.0 Safari/537.36" version="21.3.3" etag="p8QxsOa8SVSCIUr3WCt-" type="github">
  <diagram name="Page-1" id="oWcgthpm6LYP-4h4Y0Tr">
    <mxGraphModel>
      <root>
        <mxCell id="0" />
        <mxCell id="1" parent="0" />
      </root>
    </mxGraphModel>
  </diagram>
</mxfile>
